<svg width="167" height="40" viewBox="0 0 167 40" fill="none" xmlns="http://www.w3.org/2000/svg">
<path fill-rule="evenodd" clip-rule="evenodd" d="M161.734 32.8707H166.853C166.074 34.6794 164.835 36.252 163.259 37.4316C160.97 39.2123 158.12 40.114 155.225 39.9735C152.33 39.8329 149.58 38.6594 147.474 36.6653C146.308 35.6008 145.353 34.326 144.658 32.9074C143.824 31.2209 143.393 29.3639 143.397 27.4822C143.379 25.8297 143.708 24.1919 144.362 22.6746C145.016 21.1572 145.98 19.794 147.193 18.673C148.31 17.5481 149.64 16.6587 151.106 16.0575C152.572 15.4563 154.144 15.1554 155.728 15.1726C158.595 15.1465 161.378 16.1391 163.583 17.9741C164.33 18.5595 165.006 19.2302 165.598 19.9726C166.156 20.7501 166.626 21.5868 167 22.4676H161.985C160.149 20.3526 158.018 19.2982 155.575 19.2982C154.111 19.3138 152.685 19.771 151.485 20.6101C150.226 21.4387 149.228 22.6079 148.607 23.9818C148.088 25.0952 147.819 26.3087 147.817 27.5373C147.805 28.6452 148.019 29.744 148.445 30.7664C148.871 31.7888 149.502 32.7134 150.297 33.4837C150.993 34.2336 151.837 34.8319 152.774 35.2411C153.712 35.6503 154.723 35.8618 155.746 35.8622C156.815 35.8772 157.873 35.6465 158.838 35.1879C159.933 34.5934 160.914 33.8087 161.734 32.8707Z" fill="#231F20"/>
<path d="M140.451 15.6445H136.037V39.5158H140.451V15.6445Z" fill="#231F20"/>
<path fill-rule="evenodd" clip-rule="evenodd" d="M123.681 39.5158V19.7702H119.26V15.6445H132.498V19.7702H128.096V39.5158H123.681Z" fill="#231F20"/>
<path fill-rule="evenodd" clip-rule="evenodd" d="M97.1263 39.5158V15.6445H102.159L112.078 33.0116V15.6445H116.493V39.5158H111.552L101.541 22.1733V39.5158H97.1263Z" fill="#231F20"/>
<path fill-rule="evenodd" clip-rule="evenodd" d="M45.9885 39.5158V15.6445H52.1175L58.473 33.7288L64.804 15.6445H70.9145V39.5158H66.4939V21.6093L60.3159 39.5158H56.5688L50.4092 21.6093V39.5158H45.9885Z" fill="#231F20"/>
<path fill-rule="evenodd" clip-rule="evenodd" d="M42.9945 21.9708C41.9436 19.9279 40.3514 18.2141 38.3923 17.0171C36.4332 15.8201 34.1828 15.1861 31.8877 15.1846C29.9143 15.1838 27.969 15.6524 26.2118 16.5516C24.1533 17.5764 22.4288 19.1669 21.2401 21.1371C20.0469 23.0337 19.4104 25.2281 19.4032 27.4696C19.3846 29.4788 19.8532 31.4625 20.7686 33.2505C21.8068 35.286 23.3988 36.9862 25.3607 38.1547C27.1823 39.2694 29.259 39.8976 31.3923 39.9792C33.5255 40.0607 35.644 39.593 37.5452 38.6206C38.9987 37.8881 40.2933 36.8752 41.3546 35.6401C42.4159 34.405 43.223 32.9721 43.7294 31.4237C44.2358 29.8754 44.4315 28.2421 44.3054 26.6177C44.1793 24.9933 43.7338 23.4099 42.9945 21.9585V21.9708ZM37.5452 33.4896C36.8241 34.2565 35.9514 34.8646 34.9826 35.2752C34.0138 35.6858 32.9702 35.8898 31.9183 35.8742C30.8561 35.8908 29.802 35.6863 28.8229 35.2736C27.8438 34.861 26.9609 34.2493 26.2302 33.4773C25.0892 32.2977 24.3168 30.8103 24.008 29.1976C23.6991 27.5848 23.8671 25.9169 24.4913 24.3984C24.8956 23.3999 25.4904 22.49 26.2424 21.7194C26.9674 20.9425 27.8472 20.3266 28.8249 19.9116C29.8026 19.4966 30.8565 19.2917 31.9183 19.3102C32.9713 19.3096 34.0136 19.5209 34.9834 19.9316C35.9532 20.3423 36.8306 20.9441 37.5635 21.701C38.3266 22.4651 38.9266 23.3765 39.3269 24.38C39.7355 25.4035 39.9434 26.4962 39.9392 27.5984C39.9565 28.6911 39.7534 29.776 39.342 30.7883C38.9307 31.8006 38.3195 32.7193 37.5452 33.4896Z" fill="#231F20"/>
<path fill-rule="evenodd" clip-rule="evenodd" d="M0 39.528V15.6506H10.219C11.4195 15.6236 12.6177 15.7702 13.7764 16.0859C14.7095 16.3576 15.571 16.8328 16.299 17.4774C17.1076 18.156 17.7548 19.0068 18.1933 19.9676C18.6319 20.9285 18.8507 21.9752 18.8338 23.0315C18.8348 24.0501 18.648 25.0601 18.2828 26.0108H13.3845L13.458 25.9311C13.785 25.5957 14.0404 25.1972 14.2088 24.7598C14.3773 24.3225 14.4551 23.8554 14.4376 23.387C14.4587 22.8904 14.3666 22.3955 14.1682 21.9398C13.9698 21.4841 13.6704 21.0797 13.2926 20.7571C12.4224 20.0743 11.3356 19.7283 10.2312 19.7824H4.42068C4.42068 26.3602 4.42068 32.9441 4.42068 39.528H0Z" fill="#231F20"/>
<path fill-rule="evenodd" clip-rule="evenodd" d="M12.6375 27.0649L19.4828 39.5278H14.1315L7.74536 27.0649H12.6375Z" fill="#231F20"/>
<path fill-rule="evenodd" clip-rule="evenodd" d="M85.7196 15.6445H82.2663L72.3351 39.5158H77.2333C81.0907 30.4369 80.4417 31.951 84.0787 23.3871C87.1707 30.7434 87.287 31.0009 90.875 39.5158H95.7732L85.7196 15.6445Z" fill="#231F20"/>
<path fill-rule="evenodd" clip-rule="evenodd" d="M81.3845 39.5218H87.0053L84.2071 32.895L81.3845 39.5218Z" fill="#231F20"/>
<path d="M26.4934 8.64987V0.15332H28.1649V4.24221L31.2264 0.15332H33.0999L29.9589 4.20543L33.2346 8.64987H31.2937L28.1649 4.44451V8.64987H26.4934Z" fill="#231F20"/>
<path d="M35.9471 0.15332H42.1251V1.51424H37.6187V3.62305H41.9047V4.98397H37.6187V7.28895H42.1251V8.64987H35.9471V0.15332Z" fill="#231F20"/>
<path d="M48.2478 0.15332C49.9806 0.15332 51.9827 0.398531 51.9827 2.96711C51.9827 5.13723 50.2622 5.66443 48.309 5.66443H47.0232V8.64987H45.3456V0.15332H48.2478ZM47.0232 1.4652V4.35868H48.4009C49.4295 4.35868 50.2377 4.10121 50.2377 2.97937C50.2377 1.58167 49.1601 1.4652 48.26 1.4652H47.0232Z" fill="#231F20"/>
<path d="M56.1892 0.15332H57.8791L61.0507 8.64987H59.2138L58.6016 6.92727H55.3381L54.7258 8.64987H53.0298L56.1892 0.15332ZM55.8157 5.55409H58.1668L56.9851 2.20083L55.8157 5.55409Z" fill="#231F20"/>
<path d="M67.3877 8.64987L65.2876 2.26213V8.64987H63.7324V0.15332H66.1816L68.2388 6.77401L70.2287 0.15332H72.6779V8.64987H71.1165V2.26213L69.0348 8.64987H67.3877Z" fill="#231F20"/>
<path d="M79.9151 8.80307C77.3864 8.80307 75.7577 7.03142 75.7577 4.3954C75.7577 1.75939 77.3864 0 79.9151 0C82.4438 0 84.0725 1.75939 84.0725 4.3954C84.0725 7.03142 82.4438 8.80307 79.9151 8.80307ZM79.9151 7.46667C81.2376 7.46667 82.3642 6.4 82.3642 4.40153C82.3642 2.40307 81.2621 1.3364 79.9151 1.3364C78.5681 1.3364 77.466 2.40307 77.466 4.40153C77.466 6.4 78.5926 7.46667 79.9151 7.46667Z" fill="#231F20"/>
<path d="M87.14 8.64987V0.15332H93.0669V1.51424H88.7809V8.64987H87.14Z" fill="#231F20"/>
<path d="M98.6999 0.15332C100.433 0.15332 102.435 0.398531 102.435 2.96711C102.435 5.13723 100.714 5.66443 98.7611 5.66443H97.4876V8.64987H95.816V0.15332H98.6999ZM97.4753 1.4652V4.35868H98.8591C99.8877 4.35868 100.696 4.10121 100.696 2.97937C100.696 1.58167 99.6183 1.4652 98.7121 1.4652H97.4753Z" fill="#231F20"/>
<path d="M106.641 0.15332H108.325L111.497 8.64987H109.66L109.047 6.92727H105.747L105.135 8.64987H103.476L106.641 0.15332ZM106.262 5.55409H108.607L107.431 2.20083L106.262 5.55409Z" fill="#231F20"/>
<path d="M121.336 0.15332V8.64987H119.658V4.97171H115.856V8.64987H114.178V0.15332H115.856V3.62305H119.658V0.15332H121.336Z" fill="#231F20"/>
<path d="M124.906 8.64987V0.15332H126.485V6.33876L130.459 0.15332H132.039V8.64987H130.459V2.45217L126.467 8.63761L124.906 8.64987Z" fill="#231F20"/>
<path d="M137.072 1.51424H134.463V0.15332H141.37V1.51424H138.749V8.64987H137.072V1.51424Z" fill="#231F20"/>
</svg>
