<svg width="33" height="31" viewBox="0 0 33 31" fill="none" xmlns="http://www.w3.org/2000/svg">
<g clip-path="url(#clip0_122_4640)" filter="url(#filter0_d_122_4640)">
<path d="M13.4512 22C14.0035 22 14.4512 21.5523 14.4512 21C14.4512 20.4477 14.0035 20 13.4512 20C12.8989 20 12.4512 20.4477 12.4512 21C12.4512 21.5523 12.8989 22 13.4512 22Z" stroke="black" stroke-width="2" stroke-linecap="round" stroke-linejoin="round"/>
<path d="M24.4512 22C25.0035 22 25.4512 21.5523 25.4512 21C25.4512 20.4477 25.0035 20 24.4512 20C23.8989 20 23.4512 20.4477 23.4512 21C23.4512 21.5523 23.8989 22 24.4512 22Z" stroke="black" stroke-width="2" stroke-linecap="round" stroke-linejoin="round"/>
<path d="M5.45117 1H9.45117L12.1312 14.39C12.2226 14.8504 12.4731 15.264 12.8387 15.5583C13.2044 15.8526 13.6619 16.009 14.1312 16H23.8512C24.3205 16.009 24.778 15.8526 25.1436 15.5583C25.5093 15.264 25.7597 14.8504 25.8512 14.39L27.4512 6H10.4512" stroke="black" stroke-width="2" stroke-linecap="round" stroke-linejoin="round"/>
</g>
<defs>
<filter id="filter0_d_122_4640" x="0.451172" y="0" width="32" height="32" filterUnits="userSpaceOnUse" color-interpolation-filters="sRGB">
<feFlood flood-opacity="0" result="BackgroundImageFix"/>
<feColorMatrix in="SourceAlpha" type="matrix" values="0 0 0 0 0 0 0 0 0 0 0 0 0 0 0 0 0 0 127 0" result="hardAlpha"/>
<feOffset dy="4"/>
<feGaussianBlur stdDeviation="2"/>
<feComposite in2="hardAlpha" operator="out"/>
<feColorMatrix type="matrix" values="0 0 0 0 0 0 0 0 0 0 0 0 0 0 0 0 0 0 0.25 0"/>
<feBlend mode="normal" in2="BackgroundImageFix" result="effect1_dropShadow_122_4640"/>
<feBlend mode="normal" in="SourceGraphic" in2="effect1_dropShadow_122_4640" result="shape"/>
</filter>
<clipPath id="clip0_122_4640">
<rect width="24" height="24" fill="white" transform="translate(4.45117)"/>
</clipPath>
</defs>
</svg>
